<svg xmlns="http://www.w3.org/2000/svg" xmlns:xlink="http://www.w3.org/1999/xlink" version="1.1" x="0px" y="0px" viewBox="0 0 100 100" enable-background="new 0 0 100 100" xml:space="preserve"><g fill="white"><path d="M47.418,28.976C35.842,30.869,28.006,41.763,29.911,53.34c1.907,11.556,12.788,19.392,24.365,17.5   c11.562-1.906,19.411-12.818,17.505-24.36C69.876,34.915,58.974,27.067,47.418,28.976z M53.763,67.586   c-0.343,0.081-0.667,0.106-1.004,0.152c-0.285-0.77-1.005-1.304-1.887-1.304c-0.861,0-1.606,0.545-1.866,1.304   c-7.881-0.813-14.512-6.77-15.867-14.935c-1.588-9.77,5.049-19.013,14.798-20.593c0.356-0.059,0.706-0.098,1.043-0.147   c0.285,0.788,1.03,1.341,1.892,1.341c0.882,0,1.621-0.553,1.906-1.341c7.804,0.856,14.421,6.79,15.757,14.946   C70.115,56.771,63.519,65.995,53.763,67.586z"/><path d="M85.069,50.144c0.013-2.171,1.367-4.006,3.254-4.761l0.446-0.634c-0.039-0.412-0.109-0.814-0.2-1.242   c-0.039-0.426-0.15-0.829-0.228-1.214l-0.675-0.483c-2.021-0.078-3.882-1.375-4.614-3.386c-0.731-2.026-0.091-4.214,1.438-5.571   l0.221-0.739c-0.408-0.761-0.823-1.484-1.257-2.181l-0.797-0.217c-1.92,0.61-4.123,0.045-5.478-1.598   c-1.4-1.668-1.536-3.947-0.57-5.723l-0.091-0.797c-0.603-0.561-1.23-1.099-1.899-1.607l-0.803,0.071   c-1.613,1.244-3.857,1.465-5.717,0.37c-1.86-1.083-2.788-3.163-2.477-5.192l-0.33-0.706c-0.771-0.312-1.562-0.61-2.359-0.856   l-0.744,0.337c-1.097,1.698-3.132,2.69-5.244,2.304c-2.127-0.398-3.702-2.025-4.11-4.035l-0.531-0.545   c-0.83-0.029-1.679-0.029-2.521,0L49.2,12.312c-0.435,1.98-2.028,3.595-4.135,3.948c-2.12,0.353-4.186-0.636-5.237-2.378   l-0.693-0.312c-0.804,0.252-1.601,0.518-2.359,0.827l-0.345,0.742c0.267,2.009-0.687,4.077-2.527,5.127   c-1.88,1.082-4.148,0.833-5.762-0.441l-0.785-0.074c-0.642,0.516-1.283,1.054-1.918,1.624l-0.065,0.814   c0.953,1.789,0.771,4.054-0.616,5.681c-1.413,1.637-3.624,2.197-5.548,1.556l-0.746,0.188c-0.473,0.713-0.875,1.435-1.277,2.188   l0.201,0.784c1.51,1.359,2.113,3.562,1.374,5.54c-0.745,2.044-2.651,3.301-4.673,3.347l-0.667,0.457   c-0.169,0.83-0.324,1.627-0.441,2.457l0.473,0.686c1.873,0.768,3.202,2.61,3.183,4.751c0,2.172-1.349,4.006-3.267,4.762   l-0.421,0.618c0.045,0.418,0.097,0.846,0.168,1.242c0.091,0.431,0.169,0.83,0.253,1.24l0.667,0.464   c2.022,0.087,3.895,1.384,4.621,3.383c0.719,2.039,0.091,4.226-1.439,5.558l-0.201,0.785c0.37,0.735,0.785,1.478,1.225,2.154   l0.811,0.224c1.919-0.608,4.116-0.055,5.503,1.598c1.387,1.673,1.517,3.947,0.558,5.724l0.052,0.781   c0.609,0.561,1.27,1.108,1.925,1.623l0.816-0.087c1.6-1.227,3.85-1.433,5.71-0.353c1.853,1.091,2.8,3.161,2.496,5.19l0.317,0.706   c0.758,0.312,1.562,0.606,2.34,0.876l0.751-0.357c1.089-1.718,3.131-2.681,5.238-2.305c2.12,0.399,3.714,2.026,4.103,4.04   l0.563,0.54c0.83,0.028,1.666,0.028,2.521,0l0.571-0.576c0.428-1.978,2.001-3.592,4.128-3.957c2.126-0.36,4.174,0.648,5.231,2.392   l0.698,0.324c0.812-0.253,1.596-0.531,2.354-0.84l0.363-0.755c-0.272-1.996,0.667-4.08,2.515-5.097   c1.899-1.116,4.154-0.851,5.763,0.437l0.758,0.049c0.667-0.485,1.315-1.051,1.944-1.602l0.046-0.813   c-0.927-1.805-0.739-4.063,0.654-5.69c1.394-1.653,3.604-2.188,5.529-1.553l0.758-0.207c0.44-0.696,0.869-1.42,1.271-2.172   l-0.228-0.768c-1.479-1.36-2.112-3.545-1.342-5.574c0.739-2.029,2.626-3.282,4.68-3.327l0.643-0.475   c0.174-0.812,0.298-1.609,0.446-2.439l-0.493-0.694C86.385,54.121,85.069,52.306,85.069,50.144z M81.076,44.596   c0.207,1.287-0.642,2.518-1.938,2.751c-1.276,0.224-2.527-0.635-2.754-1.938c-0.221-1.286,0.634-2.525,1.932-2.741   C79.604,42.444,80.855,43.299,81.076,44.596z M74.174,33.721c1.146-0.651,2.6-0.28,3.254,0.854c0.648,1.141,0.265,2.62-0.875,3.251   c-1.134,0.654-2.581,0.285-3.241-0.856C72.638,35.817,73.059,34.368,74.174,33.721z M67.245,26.727   c0.842-1.005,2.352-1.127,3.345-0.294c1.01,0.838,1.134,2.362,0.291,3.356c-0.862,1.002-2.346,1.122-3.338,0.295   C66.519,29.226,66.409,27.734,67.245,26.727z M58.319,22.527c0.454-1.222,1.829-1.876,3.041-1.419   c1.225,0.447,1.873,1.805,1.419,3.046c-0.448,1.231-1.803,1.876-3.04,1.419C58.495,25.116,57.879,23.768,58.319,22.527z    M50.872,19.26c1.329,0,2.372,1.05,2.372,2.366c0,1.329-1.043,2.382-2.372,2.382c-1.289,0-2.366-1.053-2.366-2.382   C48.506,20.31,49.583,19.26,50.872,19.26z M40.386,21.107c1.238-0.457,2.605,0.197,3.065,1.419   c0.448,1.215-0.208,2.589-1.425,3.046c-1.245,0.457-2.6-0.188-3.054-1.419C38.531,22.912,39.167,21.554,40.386,21.107z    M31.169,26.432c1.024-0.859,2.527-0.727,3.344,0.294c0.842,1.008,0.727,2.499-0.279,3.357c-1.004,0.827-2.501,0.707-3.351-0.295   C30.022,28.794,30.178,27.271,31.169,26.432z M20.682,44.596c0.227-1.297,1.471-2.151,2.748-1.928   c1.303,0.216,2.171,1.455,1.945,2.741c-0.227,1.303-1.445,2.162-2.761,1.938C21.317,47.113,20.455,45.883,20.682,44.596z    M23.43,57.163c-1.277,0.224-2.521-0.631-2.748-1.921c-0.227-1.297,0.635-2.524,1.932-2.758c1.316-0.241,2.534,0.635,2.761,1.918   C25.601,55.702,24.733,56.914,23.43,57.163z M27.565,66.11c-1.115,0.666-2.593,0.267-3.234-0.875   c-0.667-1.134-0.285-2.585,0.862-3.23c1.153-0.654,2.612-0.288,3.254,0.866C29.095,64.015,28.725,65.443,27.565,66.11z    M28.447,36.97c-0.642,1.141-2.101,1.51-3.254,0.856c-1.147-0.646-1.53-2.11-0.862-3.251c0.642-1.134,2.12-1.506,3.234-0.854   C28.725,34.368,29.095,35.817,28.447,36.97z M34.514,73.104c-0.817,1.002-2.32,1.138-3.344,0.295   c-0.992-0.829-1.147-2.35-0.286-3.374c0.849-0.984,2.346-1.108,3.351-0.278C35.24,70.606,35.355,72.097,34.514,73.104z    M43.451,77.304c-0.46,1.223-1.827,1.877-3.065,1.401c-1.219-0.426-1.854-1.786-1.414-3.028c0.454-1.23,1.809-1.882,3.054-1.419   C43.244,74.696,43.899,76.073,43.451,77.304z M50.872,80.571c-1.289,0-2.378-1.069-2.378-2.383   c0.012-1.305,1.089-2.366,2.378-2.366c1.329,0,2.372,1.062,2.372,2.366C53.244,79.502,52.201,80.571,50.872,80.571z M61.36,78.705   c-1.232,0.476-2.587-0.179-3.041-1.401c-0.44-1.23,0.176-2.607,1.42-3.046c1.237-0.463,2.592,0.163,3.04,1.419   C63.233,76.919,62.585,78.279,61.36,78.705z M70.59,73.399c-0.993,0.843-2.521,0.726-3.345-0.295   c-0.836-1.008-0.727-2.498,0.298-3.357c0.992-0.83,2.476-0.706,3.338,0.278C71.724,71.05,71.6,72.57,70.59,73.399z M54.419,71.552   c-11.952,1.968-23.218-6.119-25.188-18.079c-1.958-11.949,6.139-23.21,18.096-25.165c11.958-1.967,23.203,6.134,25.181,18.083   C74.446,58.333,66.369,69.615,54.419,71.552z M77.428,65.235c-0.654,1.142-2.107,1.541-3.254,0.875   c-1.115-0.667-1.536-2.096-0.862-3.239c0.66-1.154,2.107-1.521,3.241-0.866C77.692,62.666,78.076,64.102,77.428,65.235z    M81.076,55.242c-0.221,1.29-1.472,2.161-2.761,1.921c-1.298-0.249-2.152-1.461-1.932-2.761c0.227-1.283,1.478-2.159,2.754-1.918   C80.435,52.718,81.283,53.945,81.076,55.242z"/></g></svg>
